<?xml version="1.0" encoding="UTF-8" standalone="no"?>
<!-- Created with Inkscape (http://www.inkscape.org/) -->

<svg
   xmlns:dc="http://purl.org/dc/elements/1.1/"
   xmlns:cc="http://creativecommons.org/ns#"
   xmlns:rdf="http://www.w3.org/1999/02/22-rdf-syntax-ns#"
   xmlns:svg="http://www.w3.org/2000/svg"
   xmlns="http://www.w3.org/2000/svg"
   xmlns:sodipodi="http://sodipodi.sourceforge.net/DTD/sodipodi-0.dtd"
   xmlns:inkscape="http://www.inkscape.org/namespaces/inkscape"
   id="svg2816"
   version="1.1"
   inkscape:version="0.92.0 r15299"
   width="4.99999cm"
   height="4.99999cm"
   xml:space="preserve"
   sodipodi:docname="LogoSco50x50-2016.svg"><metadata
     id="metadata2822"><rdf:RDF><cc:Work
         rdf:about=""><dc:format>image/svg+xml</dc:format><dc:type
           rdf:resource="http://purl.org/dc/dcmitype/StillImage" /><dc:title></dc:title></cc:Work></rdf:RDF></metadata><defs
     id="defs2820"><inkscape:perspective
       sodipodi:type="inkscape:persp3d"
       inkscape:vp_x="0 : 0.53333333 : 1"
       inkscape:vp_y="0 : 1066.6667 : 0"
       inkscape:vp_z="1.0666667 : 0.53333333 : 1"
       inkscape:persp3d-origin="0.53333333 : 0.35555555 : 1"
       id="perspective2824" /><clipPath
       clipPathUnits="userSpaceOnUse"
       id="clipPath2832"><path
         d="M 0,151.1808 H 151.1808 V 0 H 0 Z"
         id="path2834"
         inkscape:connector-curvature="0"
         style="stroke-width:1.06666672" /></clipPath></defs><sodipodi:namedview
     pagecolor="#ffffff"
     bordercolor="#666666"
     borderopacity="1"
     objecttolerance="10"
     gridtolerance="10"
     guidetolerance="10"
     inkscape:pageopacity="0"
     inkscape:pageshadow="2"
     inkscape:window-width="1920"
     inkscape:window-height="1137"
     id="namedview2818"
     showgrid="false"
     inkscape:zoom="3.767724"
     inkscape:cx="88.582497"
     inkscape:cy="89.487188"
     inkscape:window-x="-8"
     inkscape:window-y="-8"
     inkscape:window-maximized="1"
     inkscape:current-layer="g2830"
     units="cm"
     inkscape:pagecheckerboard="true" /><g
     id="g2826"
     inkscape:groupmode="layer"
     inkscape:label="LogoSco50x50"
     transform="matrix(1.25,0,0,-1.25,0,188.976)"><g
       id="g2828"><g
         id="g2830"
         clip-path="url(#clipPath2832)"><path
           d="m 149.66933,75.5904 c 0,-40.913067 -33.1648,-74.0789333 -74.07893,-74.0789333 -40.912,0 -74.0789333,33.1658663 -74.0789333,74.0789333 0,40.912 33.1669333,74.07893 74.0789333,74.07893 40.91413,0 74.07893,-33.16693 74.07893,-74.07893"
           style="fill:#ffff00;fill-opacity:1;fill-rule:nonzero;stroke:none;stroke-width:1.06666672"
           id="path2836"
           inkscape:connector-curvature="0" /><path
           d="m 149.66933,75.5904 c 0,-40.913067 -33.1648,-74.0789333 -74.07893,-74.0789333 -40.912,0 -74.0789333,33.1658663 -74.0789333,74.0789333 0,40.912 33.1669333,74.07893 74.0789333,74.07893 40.91413,0 74.07893,-33.16693 74.07893,-74.07893 z"
           style="fill:none;stroke:#000000;stroke-width:1.06666672;stroke-linecap:butt;stroke-linejoin:miter;stroke-miterlimit:4;stroke-dasharray:none;stroke-opacity:1"
           id="path2838"
           inkscape:connector-curvature="0" /><path
           d="M 129.09227,75.588267 C 129.09227,46.0416 105.1392,22.0896 75.5904,22.0896 c -29.547733,0 -53.5008,23.952 -53.5008,53.498667 0,29.548803 23.953067,53.505063 53.5008,53.505063 29.5488,0 53.50187,-23.95626 53.50187,-53.505063"
           style="fill:#ff0000;fill-opacity:1;fill-rule:nonzero;stroke:none;stroke-width:1.06666672"
           id="path2840"
           inkscape:connector-curvature="0" /><path
           d="M 129.09227,75.588267 C 129.09227,46.0416 105.1392,22.0896 75.5904,22.0896 c -29.547733,0 -53.5008,23.952 -53.5008,53.498667 0,29.548803 23.953067,53.505063 53.5008,53.505063 29.5488,0 53.50187,-23.95626 53.50187,-53.505063 z"
           style="fill:none;stroke:#000000;stroke-width:1.06666672;stroke-linecap:butt;stroke-linejoin:miter;stroke-miterlimit:4;stroke-dasharray:none;stroke-opacity:1"
           id="path2842"
           inkscape:connector-curvature="0" /><path
           d="m 61.628236,109.13005 c -1.213894,0.009 -6.649255,-1.99942 -11.004298,-4.05998 C 40.299245,100.20329 27.429338,89.966644 19.555914,80.355381 14.613742,74.328045 11.286178,69.228762 9.9328423,65.631802 8.7394994,62.449761 7.6386279,57.855595 7.6811954,56.271089 c 0.073387,-2.905428 0.7016224,-3.785375 2.132752,-3.044737 0.3757636,0.192427 0.9893166,1.355999 1.3929686,2.605765 1.234442,3.884597 3.923501,8.169076 6.427614,10.278746 4.121658,3.464666 7.507933,5.339813 9.634815,5.327789 2.119542,-0.0039 3.853045,-2.019469 3.853045,-4.496952 0,-1.107448 0.0455,-1.160567 0.864552,-0.86291 0.488785,0.17138 1.343059,1.030281 1.905238,1.905215 3.427374,5.336811 6.640447,8.026762 10.29387,8.619072 0.81758,0.139312 1.348932,0.02707 1.988906,-0.404894 0.739783,-0.495095 0.876291,-0.943086 0.876291,-2.733047 0,-1.848089 0.09394,-2.126707 0.708961,-2.04653 0.381633,0.04809 1.572041,0.927052 2.624475,1.951318 3.408292,3.324355 6.865024,5.498166 10.831092,6.815081 1.7702,0.587299 2.37788,0.671486 3.058951,0.42494 1.38563,-0.503112 1.792218,-1.613571 1.045093,-2.868347 -0.35815,-0.598324 -0.648778,-1.399097 -0.648778,-1.782945 0,-0.580285 0.199622,-0.703556 1.203616,-0.703556 0.902715,0 1.630757,0.310688 2.840248,1.215689 2.41751,1.805997 3.964599,2.21891 5.036112,1.294865 0.161462,-0.608346 0.371362,-1.071372 0.637037,-1.311902 0.747124,-0.670484 1.479571,-0.654449 2.144495,-0.03007 0.118895,0.07918 0.24366,0.120269 0.359617,0.2255 0.164397,0.145316 0.305308,0.40189 0.422734,0.70055 1.062709,1.182615 2.653831,0.859902 5.244546,-1.073376 1.202151,-0.909011 1.952211,-1.217694 2.84318,-1.214689 1.003994,0.0021 1.210958,0.11727 1.210958,0.705563 0,0.383848 -0.299436,1.182617 -0.651716,1.775929 -0.747122,1.258786 -0.347873,2.364231 1.031883,2.874361 0.688411,0.241535 1.306365,0.160354 3.067757,-0.429952 3.955794,-1.321927 7.421334,-3.490723 10.836962,-6.812074 1.04363,-1.024266 2.22524,-1.900206 2.62155,-1.950314 0.61061,-0.07718 0.70455,0.193428 0.70455,2.045525 0,1.790962 0.14237,2.226928 0.87776,2.723027 0.63704,0.441977 1.16106,0.550218 1.98009,0.412912 3.65342,-0.592308 6.88265,-3.287272 10.30268,-8.617065 0.56219,-0.879948 1.40471,-1.742857 1.89349,-1.91524 0.822,-0.290644 0.87337,-0.242535 0.87337,0.863913 0,2.473472 1.72909,4.494945 3.85598,4.504968 2.13274,0.0029 5.50875,-1.871141 9.626,-5.330797 2.51585,-2.11067 5.19757,-6.39515 6.42173,-10.27273 0.41395,-1.259789 1.02455,-2.41334 1.40766,-2.610778 1.43994,-0.74164 2.05055,0.133294 2.13423,3.042734 0.0454,1.583503 -1.06566,6.183682 -2.24871,9.366724 -1.34601,3.598967 -4.6721,8.68522 -9.63335,14.717568 -7.86756,9.615286 -20.7448,19.847922 -31.05041,24.721712 -4.359446,2.05756 -9.80655,4.06098 -11.010169,4.05697 -1.372419,-0.009 -0.929135,-0.91504 1.171325,-2.38326 1.205086,-0.8489 2.568698,-1.96135 3.023724,-2.46547 0.447687,-0.50311 1.291687,-1.28684 1.862672,-1.74785 2.031472,-1.61558 3.12794,-3.766348 3.152892,-6.108528 0.02202,-2.73606 -0.962895,-4.012879 -4.287523,-5.59538 -2.203207,-1.052339 -2.595117,-1.135523 -5.482333,-1.192643 -6.103224,-0.118287 -6.666869,0.1363 -6.690355,2.935498 0,1.225711 -0.490254,3.852525 -1.077384,5.737691 -0.327325,1.085391 -1.642497,0.752662 -3.113262,-0.789742 -0.798498,-0.839875 -1.680661,-1.871145 -2.468883,-2.633839 -0.83813,0.769712 -1.817171,1.907228 -2.691993,2.833284 -1.461957,1.534401 -2.76979,1.870134 -3.111795,0.782725 -0.579792,-1.886176 -1.08032,-4.508978 -1.08032,-5.734689 -0.01469,-2.801193 -0.576855,-3.045735 -6.67274,-2.929484 -2.901894,0.05206 -3.27766,0.138295 -5.485269,1.182625 -3.334904,1.581496 -4.306606,2.861328 -4.291926,5.598376 0.01469,2.346182 1.118485,4.495956 3.14702,6.111546 0.566582,0.45601 1.409115,1.24373 1.856801,1.75087 0.466769,0.50912 1.825978,1.61457 3.041338,2.46144 2.093121,1.47125 2.536404,2.38227 1.171326,2.38227"
           style="fill:#000000;fill-opacity:1;fill-rule:nonzero;stroke:none;stroke-width:1.06666672"
           id="path2844"
           inkscape:connector-curvature="0" /><text
           transform="matrix(0.37680225,0.92629372,0.92629372,-0.37680225,0,0)"
           id="text2846"
           x="91.435722"
           y="-14.036683"
           style="font-size:12.80000019px;stroke-width:1.0666666"><tspan
             style="font-variant:normal;font-weight:bold;font-stretch:normal;font-size:20.32599258px;font-family:'Comic Sans MS';-inkscape-font-specification:ComicSansMS-Bold;writing-mode:lr-tb;fill:#000000;fill-opacity:1;fill-rule:nonzero;stroke:none;stroke-width:1.0666666"
             x="91.435722"
             y="-14.036683"
             id="tspan2848">S</tspan></text>
<text
           transform="matrix(0.57402644,0.81883677,0.81883677,-0.57402644,0,0)"
           id="text2850"
           x="99.824188"
           y="-37.057926"
           style="font-size:12.80000019px;stroke-width:1.06666672"><tspan
             style="font-variant:normal;font-weight:bold;font-stretch:normal;font-size:20.32593918px;font-family:'Comic Sans MS';-inkscape-font-specification:ComicSansMS-Bold;writing-mode:lr-tb;fill:#000000;fill-opacity:1;fill-rule:nonzero;stroke:none;stroke-width:1.06666672"
             x="99.824188"
             y="-37.057926"
             id="tspan2852">P</tspan></text>
<text
           transform="matrix(0.7324392,0.68083244,0.68083244,-0.7324392,0,0)"
           id="text2854"
           x="100.49612"
           y="-59.45998"
           style="font-size:12.80000019px;stroke-width:1.06666672"><tspan
             style="font-variant:normal;font-weight:bold;font-stretch:normal;font-size:20.32601929px;font-family:'Comic Sans MS';-inkscape-font-specification:ComicSansMS-Bold;writing-mode:lr-tb;fill:#000000;fill-opacity:1;fill-rule:nonzero;stroke:none;stroke-width:1.06666672"
             x="100.49612"
             y="-59.45998"
             id="tspan2856">E</tspan></text>
<text
           transform="matrix(0.8604261,0.50957524,0.50957524,-0.8604261,0,0)"
           id="text2858"
           x="98.014824"
           y="-82.088562"
           style="font-size:12.80000019px;stroke-width:1.06666672"><tspan
             style="font-variant:normal;font-weight:bold;font-stretch:normal;font-size:20.32605362px;font-family:'Comic Sans MS';-inkscape-font-specification:ComicSansMS-Bold;writing-mode:lr-tb;fill:#000000;fill-opacity:1;fill-rule:nonzero;stroke:none;stroke-width:1.06666672"
             x="98.014824"
             y="-82.088562"
             id="tspan2860">L</tspan></text>
<text
           transform="matrix(0.94968242,0.31321446,0.31321446,-0.94968242,0,0)"
           id="text2862"
           x="89.106438"
           y="-103.68425"
           style="font-size:12.80000019px;stroke-width:1.06666672"><tspan
             style="font-variant:normal;font-weight:bold;font-stretch:normal;font-size:20.32600975px;font-family:'Comic Sans MS';-inkscape-font-specification:ComicSansMS-Bold;writing-mode:lr-tb;fill:#000000;fill-opacity:1;fill-rule:nonzero;stroke:none;stroke-width:1.06666672"
             x="89.106438"
             y="-103.68425"
             id="tspan2864">E</tspan></text>
<text
           transform="matrix(0.99833217,0.05773112,0.05773112,-0.99833217,0,0)"
           id="text2866"
           x="71.663559"
           y="-126.66048"
           style="font-size:12.80000019px;stroke-width:1.06666672"><tspan
             style="font-variant:normal;font-weight:bold;font-stretch:normal;font-size:20.32595444px;font-family:'Comic Sans MS';-inkscape-font-specification:ComicSansMS-Bold;writing-mode:lr-tb;fill:#000000;fill-opacity:1;fill-rule:nonzero;stroke:none;stroke-width:1.06666672"
             x="71.663559"
             y="-126.66048"
             id="tspan2868">O</tspan></text>
<text
           transform="matrix(0.8955192,-0.44502288,-0.44502288,-0.8955192,0,0)"
           id="text2870"
           x="27.724285"
           y="-156.90315"
           style="font-size:12.80000019px;stroke-width:1.06666672"><tspan
             style="font-variant:normal;font-weight:bold;font-stretch:normal;font-size:20.32602501px;font-family:'Comic Sans MS';-inkscape-font-specification:ComicSansMS-Bold;writing-mode:lr-tb;fill:#000000;fill-opacity:1;fill-rule:nonzero;stroke:none;stroke-width:1.06666672"
             x="27.724285"
             y="-156.90315"
             id="tspan2872">C</tspan></text>
<text
           transform="matrix(0.78069163,-0.62491645,-0.62491645,-0.78069163,0,0)"
           id="text2874"
           x="6.1431108"
           y="-161.81152"
           style="font-size:12.80000019px;stroke-width:1.0666666"><tspan
             style="font-variant:normal;font-weight:bold;font-stretch:normal;font-size:20.32604599px;font-family:'Comic Sans MS';-inkscape-font-specification:ComicSansMS-Bold;writing-mode:lr-tb;fill:#000000;fill-opacity:1;fill-rule:nonzero;stroke:none;stroke-width:1.0666666"
             x="6.1431108"
             y="-161.81152"
             id="tspan2876">L</tspan></text>
<text
           transform="matrix(0.61436487,-0.78902206,-0.78902206,-0.61436487,0,0)"
           id="text2878"
           x="-20.651247"
           y="-161.6438"
           style="font-size:12.80000019px;stroke-width:1.06666672"><tspan
             style="font-variant:normal;font-weight:bold;font-stretch:normal;font-size:20.32598877px;font-family:'Comic Sans MS';-inkscape-font-specification:ComicSansMS-Bold;writing-mode:lr-tb;fill:#000000;fill-opacity:1;fill-rule:nonzero;stroke:none;stroke-width:1.06666672"
             x="-20.651247"
             y="-161.6438"
             id="tspan2880">U</tspan></text>
<text
           transform="matrix(0.40010267,-0.91647032,-0.91647032,-0.40010267,0,0)"
           id="text2882"
           x="-45.409603"
           y="-155.0932"
           style="font-size:12.80000019px;stroke-width:1.06666672"><tspan
             style="font-variant:normal;font-weight:bold;font-stretch:normal;font-size:20.32598305px;font-family:'Comic Sans MS';-inkscape-font-specification:ComicSansMS-Bold;writing-mode:lr-tb;fill:#000000;fill-opacity:1;fill-rule:nonzero;stroke:none;stroke-width:1.06666672"
             x="-45.409603"
             y="-155.0932"
             id="tspan2884">B</tspan></text>
<text
           transform="matrix(0.57981294,-0.81722616,-0.81393748,-0.57747761,0,0)"
           id="text2886"
           x="-22.492262"
           y="-54.412201"
           style="font-size:12.79143906px;stroke-width:1.06595325"><tspan
             style="font-variant:normal;font-weight:bold;font-stretch:normal;font-size:14.43334484px;font-family:'Comic Sans MS';-inkscape-font-specification:ComicSansMS-Bold;writing-mode:lr-tb;fill:#000000;fill-opacity:1;fill-rule:nonzero;stroke:none;stroke-width:1.06595325"
             x="-22.492262"
             y="-54.412201"
             id="tspan2888">B</tspan></text>
<text
           transform="matrix(0.79045353,-0.61581295,-0.61333719,-0.7872683,0,0)"
           id="text2890"
           x="8.6026554"
           y="-55.126957"
           style="font-size:12.79360962px;stroke-width:1.0661341"><tspan
             style="font-variant:normal;font-weight:bold;font-stretch:normal;font-size:14.43330002px;font-family:'Comic Sans MS';-inkscape-font-specification:ComicSansMS-Bold;writing-mode:lr-tb;fill:#000000;fill-opacity:1;fill-rule:nonzero;stroke:none;stroke-width:1.0661341"
             x="8.6026554"
             y="-55.126957"
             id="tspan2892">E</tspan></text>
<text
           transform="matrix(0.93489642,-0.36056585,-0.35911735,-0.93113476,0,0)"
           id="text2894"
           x="38.566914"
           y="-46.761574"
           style="font-size:12.78086472px;stroke-width:1.06507206"><tspan
             style="font-variant:normal;font-weight:bold;font-stretch:normal;font-size:14.43331337px;font-family:'Comic Sans MS';-inkscape-font-specification:ComicSansMS-Bold;writing-mode:lr-tb;fill:#000000;fill-opacity:1;fill-rule:nonzero;stroke:none;stroke-width:1.06507206"
             x="38.566914"
             y="-46.761574"
             id="tspan2896">R</tspan></text>
<text
           transform="matrix(0.99985095,-0.06589947,-0.06563342,-0.99582322,0,0)"
           id="text2898"
           x="65.344818"
           y="-29.421824"
           style="font-size:12.77441502px;stroke-width:1.06453454"><tspan
             style="font-variant:normal;font-weight:bold;font-stretch:normal;font-size:14.43329716px;font-family:'Comic Sans MS';-inkscape-font-specification:ComicSansMS-Bold;writing-mode:lr-tb;fill:#000000;fill-opacity:1;fill-rule:nonzero;stroke:none;stroke-width:1.06453454"
             x="65.344818"
             y="-29.421824"
             id="tspan2900">G</tspan></text>
<text
           transform="matrix(0.97181138,0.24419072,0.24320781,-0.96789452,0,0)"
           id="text2902"
           x="86.354271"
           y="-3.847054"
           style="font-size:12.77722931px;stroke-width:1.06476915"><tspan
             style="font-variant:normal;font-weight:bold;font-stretch:normal;font-size:14.4333086px;font-family:'Comic Sans MS';-inkscape-font-specification:ComicSansMS-Bold;writing-mode:lr-tb;fill:#000000;fill-opacity:1;fill-rule:nonzero;stroke:none;stroke-width:1.06476915"
             x="86.354271"
             y="-3.847054"
             id="tspan2904">A</tspan></text>
<text
           transform="matrix(0.83218437,0.55812999,0.55588335,-0.82883657,0,0)"
           id="text2906"
           x="98.329239"
           y="30.454727"
           style="font-size:12.79017353px;stroke-width:1.06584787"><tspan
             style="font-variant:normal;font-weight:bold;font-stretch:normal;font-size:14.43334007px;font-family:'Comic Sans MS';-inkscape-font-specification:ComicSansMS-Bold;writing-mode:lr-tb;fill:#000000;fill-opacity:1;fill-rule:nonzero;stroke:none;stroke-width:1.06584787"
             x="98.329239"
             y="30.454727"
             id="tspan2908">M</tspan></text>
<text
           transform="matrix(0.58895535,0.81066442,0.80739791,-0.58658307,0,0)"
           id="text2910"
           x="99.678787"
           y="67.949631"
           style="font-size:12.79196548px;stroke-width:1.06599712"><tspan
             style="font-variant:normal;font-weight:bold;font-stretch:normal;font-size:14.43332863px;font-family:'Comic Sans MS';-inkscape-font-specification:ComicSansMS-Bold;writing-mode:lr-tb;fill:#000000;fill-opacity:1;fill-rule:nonzero;stroke:none;stroke-width:1.06599712"
             x="99.678787"
             y="67.949631"
             id="tspan2912">O</tspan></text>
<text
           transform="matrix(0.62725444,-0.7788144,-0.7788144,-0.62725444,0,0)"
           id="text2914"
           x="-19.713886"
           y="-34.260857"
           style="font-size:12.80000019px;stroke-width:1.06666672"><tspan
             style="font-variant:normal;font-weight:bold;font-stretch:normal;font-size:20.57746506px;font-family:'Comic Sans MS';-inkscape-font-specification:ComicSansMS-Bold;writing-mode:lr-tb;fill:#000000;fill-opacity:1;fill-rule:nonzero;stroke:none;stroke-width:1.06666672"
             x="-19.713886"
             y="-34.260857"
             id="tspan2916">O</tspan></text>
<text
           transform="matrix(0.8353,-0.54979443,-0.54979443,-0.8353,0,0)"
           id="text2918"
           x="15.063143"
           y="-32.669563"
           style="font-size:12.80000019px;stroke-width:1.06666672"><tspan
             style="font-variant:normal;font-weight:bold;font-stretch:normal;font-size:20.57748604px;font-family:'Comic Sans MS';-inkscape-font-specification:ComicSansMS-Bold;writing-mode:lr-tb;fill:#000000;fill-opacity:1;fill-rule:nonzero;stroke:none;stroke-width:1.06666672"
             x="15.063143"
             y="-32.669563"
             id="tspan2920">R</tspan></text>
<text
           transform="matrix(0.96425603,-0.26497226,-0.26497226,-0.96425603,0,0)"
           id="text2922"
           x="44.606331"
           y="-20.877138"
           style="font-size:12.80000019px;stroke-width:1.0666666"><tspan
             style="font-variant:normal;font-weight:bold;font-stretch:normal;font-size:20.57754898px;font-family:'Comic Sans MS';-inkscape-font-specification:ComicSansMS-Bold;writing-mode:lr-tb;fill:#000000;fill-opacity:1;fill-rule:nonzero;stroke:none;stroke-width:1.0666666"
             x="44.606331"
             y="-20.877138"
             id="tspan2924">O</tspan></text>
<text
           transform="matrix(0.99915286,0.04115296,0.04115296,-0.99915286,0,0)"
           id="text2926"
           x="72.204315"
           y="-0.39136368"
           style="font-size:12.80000019px;stroke-width:1.06666672"><tspan
             style="font-variant:normal;font-weight:bold;font-stretch:normal;font-size:20.57753944px;font-family:'Comic Sans MS';-inkscape-font-specification:ComicSansMS-Bold;writing-mode:lr-tb;fill:#000000;fill-opacity:1;fill-rule:nonzero;stroke:none;stroke-width:1.06666672"
             x="72.204315"
             y="-0.39136368"
             id="tspan2928">B</tspan></text>
<text
           transform="matrix(0.95016766,0.31173934,0.31173934,-0.95016766,0,0)"
           id="text2930"
           x="89.780487"
           y="23.783764"
           style="font-size:12.80000019px;stroke-width:1.06666672"><tspan
             style="font-variant:normal;font-weight:bold;font-stretch:normal;font-size:20.57753372px;font-family:'Comic Sans MS';-inkscape-font-specification:ComicSansMS-Bold;writing-mode:lr-tb;fill:#000000;fill-opacity:1;fill-rule:nonzero;stroke:none;stroke-width:1.06666672"
             x="89.780487"
             y="23.783764"
             id="tspan2932">I</tspan></text>
<text
           transform="matrix(0.83028285,0.55734226,0.55734226,-0.83028285,0,0)"
           id="text2934"
           x="98.457275"
           y="51.399994"
           style="font-size:12.80000019px;stroke-width:1.06666672"><tspan
             style="font-variant:normal;font-weight:bold;font-stretch:normal;font-size:20.57747078px;font-family:'Comic Sans MS';-inkscape-font-specification:ComicSansMS-Bold;writing-mode:lr-tb;fill:#000000;fill-opacity:1;fill-rule:nonzero;stroke:none;stroke-width:1.06666672"
             x="98.457275"
             y="51.399994"
             id="tspan2936">C</tspan></text>
<text
           transform="matrix(0.62255286,0.78257775,0.78257775,-0.62255286,0,0)"
           id="text2938"
           x="98.043205"
           y="84.121635"
           style="font-size:12.80000019px;stroke-width:1.06666672"><tspan
             style="font-variant:normal;font-weight:bold;font-stretch:normal;font-size:20.57746506px;font-family:'Comic Sans MS';-inkscape-font-specification:ComicSansMS-Bold;writing-mode:lr-tb;fill:#000000;fill-opacity:1;fill-rule:nonzero;stroke:none;stroke-width:1.06666672"
             x="98.043205"
             y="84.121635"
             id="tspan2940">O</tspan></text>
<text
           transform="scale(1,-1)"
           id="text2942"
           x="50.981651"
           y="-54.431469"
           style="font-size:12.80000019px;stroke-width:1.06666672"><tspan
             style="font-variant:normal;font-weight:bold;font-stretch:normal;font-size:16.46197319px;font-family:'Comic Sans MS';-inkscape-font-specification:ComicSansMS-Bold;writing-mode:lr-tb;fill:#000000;fill-opacity:1;fill-rule:nonzero;stroke:none;stroke-width:1.06666672"
             x="50.981651 61.171616 68.316116 80.349815 87.494308 96.482544"
             y="-54.431469"
             sodipodi:role="line"
             id="tspan2944">C.A.I.</tspan></text>
</g></g></g></svg>